<?xml version="1.0" encoding="UTF-8" standalone="no"?>
<!-- Created with Inkscape (http://www.inkscape.org/) -->

<svg
   xmlns:dc="http://purl.org/dc/elements/1.1/"
   xmlns:cc="http://creativecommons.org/ns#"
   xmlns:rdf="http://www.w3.org/1999/02/22-rdf-syntax-ns#"
   xmlns:svg="http://www.w3.org/2000/svg"
   xmlns="http://www.w3.org/2000/svg"
   xmlns:sodipodi="http://sodipodi.sourceforge.net/DTD/sodipodi-0.dtd"
   xmlns:inkscape="http://www.inkscape.org/namespaces/inkscape"
   width="66.439041mm"
   height="53.738289mm"
   viewBox="0 0 235.41392 190.41126"
   id="svg2"
   version="1.1"
   inkscape:version="0.91 r13725"
   sodipodi:docname="tf2true.svg">
  <defs
     id="defs4">
    <filter
       inkscape:collect="always"
       style="color-interpolation-filters:sRGB"
       id="filter6214"
       x="-0.0084742568"
       width="1.0169485"
       y="-0.028786546"
       height="1.0575731">
      <feGaussianBlur
         inkscape:collect="always"
         stdDeviation="0.55900579"
         id="feGaussianBlur6216" />
    </filter>
  </defs>
  <sodipodi:namedview
     id="base"
     pagecolor="#ffffff"
     bordercolor="#666666"
     borderopacity="1.0"
     inkscape:pageopacity="0.0"
     inkscape:pageshadow="2"
     inkscape:zoom="1.4"
     inkscape:cx="122.62196"
     inkscape:cy="102.43989"
     inkscape:document-units="px"
     inkscape:current-layer="layer1"
     showgrid="false"
     fit-margin-top="0"
     fit-margin-left="0"
     fit-margin-right="0"
     fit-margin-bottom="0"
     inkscape:window-width="2558"
     inkscape:window-height="1419"
     inkscape:window-x="0"
     inkscape:window-y="19"
     inkscape:window-maximized="1" />
  <metadata
     id="metadata7">
    <rdf:RDF>
      <cc:Work
         rdf:about="">
        <dc:format>image/svg+xml</dc:format>
        <dc:type
           rdf:resource="http://purl.org/dc/dcmitype/StillImage" />
        <dc:title></dc:title>
      </cc:Work>
    </rdf:RDF>
  </metadata>
  <g
     inkscape:label="Layer 1"
     inkscape:groupmode="layer"
     id="layer1"
     transform="translate(-130.8014,-219.32752)">
    <path
       style="fill:#9d5422;fill-opacity:1;stroke:none"
       d="m 256.41545,409.32682 c -0.9193,-0.56816 -0.69558,-6.50784 0.96565,-25.63776 3.52767,-40.62294 2.51269,-36.27556 9.27234,-39.71544 3.18795,-1.6223 7.34118,-4.80211 9.22939,-7.06624 8.78101,-10.52916 4.17908,-9.7064 37.6808,-6.73682 34.07498,3.0204 32.55935,2.4238 29.70426,11.69257 -9.96063,32.33626 -37.07078,58.00607 -68.97079,65.30643 -10.54452,2.41313 -16.33694,3.11194 -17.88165,2.15726 z m -36.61963,-4.86915 c -28.59004,-9.95296 -52.97993,-36.50354 -60.48332,-65.84149 -2.77352,-10.84438 -3.62831,-20.86457 -1.83439,-21.50366 1.47648,-0.526 60.61283,4.54948 61.24765,5.25669 0.20813,0.23187 1.65863,3.06069 3.22333,6.28626 1.87557,3.86643 4.85453,7.6548 8.74298,11.11852 l 5.89808,5.25384 -2.72074,30.38148 c -3.31569,37.02519 -1.56136,33.4042 -14.07359,29.04836 z m 106.56134,-97.21979 c -4.125,-0.45177 -13.575,-1.31403 -21,-1.91613 -22.78579,-1.84774 -21.31501,-1.38175 -25.43651,-8.05911 -2.067,-3.34879 -5.714,-7.38013 -8.57941,-9.48353 -2.74124,-2.01226 -4.98463,-4.40783 -4.9853,-5.32349 -0.004,-5.9912 5.3232,-59.82865 5.98892,-60.52037 1.2373,-1.28563 16.51692,3.9741 24.83642,8.54949 27.08549,14.89593 47.47866,44.96971 49.37011,72.80605 0.34472,5.07326 -3.33838,5.79315 -20.19423,3.94709 z M 190.59108,295.31986 c -34.56165,-3.11507 -32.12958,-2.31636 -29.81409,-9.7912 10.80173,-34.87008 43.70668,-62.07961 79.69203,-65.89838 7.52786,-0.79885 7.2988,-2.37543 4.41171,30.36572 -3.09042,35.04691 -2.51815,32.46631 -7.70733,34.75577 -2.33725,1.03119 -6.86584,4.49932 -10.06353,7.70695 -3.19769,3.20764 -5.9127,5.77739 -6.03335,5.71056 -0.12065,-0.0668 -13.8391,-1.34907 -30.48544,-2.84942 z"
       id="path4149"
       inkscape:connector-curvature="0"
       sodipodi:nodetypes="ssssssssssscsscsssssscsssssssssscs" />
    <path
       style="fill:#9d5422;fill-opacity:1;fill-rule:nonzero;stroke:none;stroke-width:28.99600029;stroke-linejoin:miter;stroke-miterlimit:4;stroke-dasharray:none;stroke-opacity:1"
       d="m 257.51304,403.44137 c 0.44835,-7.9334 4.21647,-51.65767 4.69666,-54.49876 0.17452,-1.03257 0.53323,-1.32625 3.47711,-2.8467 5.56067,-2.87198 10.22272,-6.86123 16.19645,-13.85909 l 1.82925,-2.14286 6.02789,0.0466 c 3.91909,0.0303 12.46246,0.6246 24.42075,1.69882 25.28372,2.27127 28.17938,2.71023 28.81565,4.36833 0.1141,0.29735 -0.30943,2.33806 -0.9412,4.53489 -4.43384,15.4178 -11.47947,27.13654 -23.56002,39.18658 -10.35426,10.32812 -20.87606,17.28522 -33.76194,22.32369 -7.91103,3.09327 -18.71598,5.51969 -24.57941,5.51969 l -2.86596,0 0.24477,-4.33116 z"
       id="path4155"
       inkscape:connector-curvature="0" />
    <g
       id="g6225"
       transform="matrix(1.4659086,0,0,1.4659086,-116.59368,-126.66753)">
      <flowRoot
         transform="matrix(1.532137,0,0,1.6502012,104.06785,172.70116)"
         style="font-style:normal;font-variant:normal;font-weight:normal;font-stretch:normal;font-size:40px;line-height:125%;font-family:'TF2 Build';-inkscape-font-specification:'TF2 Build';letter-spacing:0px;word-spacing:0px;fill:#f1f1f1;fill-opacity:1;stroke:none;stroke-width:1px;stroke-linecap:butt;stroke-linejoin:miter;stroke-opacity:1"
         id="flowRoot4162"
         xml:space="preserve"><flowRegion
           id="flowRegion4164"><rect
             style="font-style:normal;font-variant:normal;font-weight:normal;font-stretch:normal;font-family:'TF2 Build';-inkscape-font-specification:'TF2 Build';fill:#f1f1f1;fill-opacity:1"
             y="54.040668"
             x="42.426407"
             height="76.266518"
             width="116.16754"
             id="rect4166" /></flowRegion><flowPara
           id="flowPara4168">TRUE</flowPara></flowRoot>      <g
         transform="translate(-3.75,-9.4642857)"
         id="g6218">
        <flowRoot
           transform="matrix(1.532137,0,0,1.6502012,107.81785,182.16545)"
           style="font-style:normal;font-variant:normal;font-weight:normal;font-stretch:normal;font-size:40px;line-height:125%;font-family:'TF2 Build';-inkscape-font-specification:'TF2 Build';letter-spacing:0px;word-spacing:0px;fill:#f1f1f1;fill-opacity:1;stroke:none;stroke-width:1px;stroke-linecap:butt;stroke-linejoin:miter;stroke-opacity:1"
           id="flowRoot6129"
           xml:space="preserve"><flowRegion
             id="flowRegion6131"><rect
               style="font-style:normal;font-variant:normal;font-weight:normal;font-stretch:normal;font-family:'TF2 Build';-inkscape-font-specification:'TF2 Build';fill:#f1f1f1;fill-opacity:1"
               y="54.040668"
               x="42.426407"
               height="76.266518"
               width="116.16754"
               id="rect6133" /></flowRegion><flowPara
             id="flowPara6135">TRUE</flowPara></flowRoot>        <path
           style="font-style:normal;font-variant:normal;font-weight:normal;font-stretch:normal;font-size:40px;line-height:125%;font-family:'TF2 Build';-inkscape-font-specification:'TF2 Build';letter-spacing:0px;word-spacing:0px;fill:#616161;fill-opacity:1;stroke:none;stroke-width:1px;stroke-linecap:butt;stroke-linejoin:miter;stroke-opacity:1;filter:url(#filter6214)"
           d="m 211.51498,287.91321 -1.46484,0.0488 0.18945,5.95703 -14.1543,0.61133 0.53906,35.8418 -9.52539,0.38867 0.0566,3.43555 11.04297,-0.45118 -0.53906,-35.83984 14.1543,-0.61328 -0.29883,-9.37891 z m 51.98047,0.0645 c -0.011,3.4951 -0.0348,6.78689 -0.0801,9.67968 -0.0399,3.82469 -0.01,7.19887 0.0898,10.1211 0.0998,2.90074 0.31906,5.36108 0.65821,7.38086 0.33914,2.01977 0.88839,3.66195 1.64648,4.92968 0.12941,0.20729 0.27671,0.39046 0.41992,0.57813 -0.19102,-0.66256 -0.36246,-1.36217 -0.49218,-2.13477 -0.33915,-2.01977 -0.55846,-4.48011 -0.65821,-7.38086 -0.0998,-2.92223 -0.12974,-6.2964 -0.0898,-10.12109 0.0598,-3.82469 0.0898,-8.17519 0.0898,-13.05273 l -1.58398,0 z m 67.25,0.0645 0,7.64844 -23.69922,0 0.17969,15.21289 1.53515,0 -0.14062,-11.83789 23.69922,0 0,-11.02344 -1.57422,0 z m -36.25,1.12891 -0.71875,0.0312 -0.86719,0 c -0.005,1.93519 -0.005,4.00045 -0.0176,5.61915 0,2.57843 -0.0206,4.84546 -0.0605,6.80078 -0.0199,1.95531 -0.0499,3.66388 -0.0898,5.125 -0.0399,1.43963 -0.0999,2.74985 -0.17969,3.93164 -0.0798,1.1603 -0.17913,2.23425 -0.29882,3.22265 -0.1197,0.96692 -0.26033,1.96667 -0.41993,2.99805 -0.31919,1.99829 -1.00712,3.86698 -2.06445,5.60742 -1.03738,1.71896 -2.37389,3.2225 -4.00977,4.51172 -1.61592,1.28922 -3.48103,2.30069 -5.5957,3.03125 -2.11467,0.73056 -4.3997,1.0957 -6.85351,1.0957 -2.39397,0 -4.54772,-0.20502 -6.46289,-0.61328 -1.89523,-0.42974 -3.59167,-0.98819 -5.0879,-1.67578 -1.47627,-0.68758 -2.76214,-1.48231 -3.85937,-2.38476 -1.09723,-0.90246 -2.03446,-1.82606 -2.8125,-2.77149 -0.60596,-0.75307 -1.10995,-1.49825 -1.55859,-2.23828 0.007,0.0215 0.0127,0.0471 0.0195,0.0684 0.27929,0.81651 0.66922,1.70691 1.16797,2.67383 0.51869,0.94543 1.16727,1.90222 1.94531,2.86914 0.77804,0.94543 1.71527,1.86903 2.8125,2.77148 1.09723,0.90246 2.3831,1.69718 3.85937,2.38477 1.49623,0.68758 3.19267,1.24604 5.08789,1.67578 1.91518,0.40825 4.07088,0.61328 6.46485,0.61328 2.45381,0 4.73689,-0.36514 6.85156,-1.0957 2.11467,-0.73056 3.97978,-1.74008 5.5957,-3.0293 1.63588,-1.28922 2.97238,-2.79471 4.00977,-4.51367 1.05733,-1.74045 1.74526,-3.60913 2.06445,-5.60742 0.1596,-1.03138 0.30023,-2.03113 0.41992,-2.99805 0.1197,-0.9884 0.21903,-2.06236 0.29883,-3.22266 0.0798,-1.18178 0.13979,-2.49201 0.17969,-3.93164 0.0399,-1.46111 0.0699,-3.16968 0.0898,-5.125 0.0399,-1.95531 0.0606,-4.22234 0.0606,-6.80078 0.0199,-2.59992 0.0293,-5.607 0.0293,-9.02343 z m -48.17969,5.43554 c 0.29316,0.93749 0.48116,1.9008 0.55078,2.89063 0.0599,0.94542 0.0712,1.83583 0.0312,2.67383 -0.0199,0.83799 -0.13993,1.66591 -0.35937,2.48242 -0.1995,0.8165 -0.51814,1.63271 -0.95704,2.44922 -0.43889,0.79501 -1.04813,1.62294 -1.82617,2.48242 -0.63839,0.70907 -1.37695,1.33196 -2.21484,1.86914 -0.81794,0.51569 -1.67453,0.96675 -2.57227,1.35351 -0.89773,0.36528 -1.81627,0.66599 -2.7539,0.90235 -0.91769,0.21487 -1.79493,0.37498 -2.63282,0.48242 l 2.90626,3.16406 c 0.42486,-0.0787 0.85727,-0.16959 1.30078,-0.27344 0.93763,-0.23635 1.85617,-0.53706 2.7539,-0.90234 0.89774,-0.38677 1.75433,-0.83783 2.57227,-1.35352 0.83789,-0.53717 1.57645,-1.16006 2.21484,-1.86914 0.77804,-0.85948 1.38728,-1.6874 1.82617,-2.48242 0.4389,-0.8165 0.75754,-1.63271 0.95704,-2.44922 0.21944,-0.8165 0.33942,-1.64443 0.35937,-2.48242 0.0399,-0.83799 0.0286,-1.7284 -0.0312,-2.67383 -0.0998,-1.41814 -0.42774,-2.78304 -0.98633,-4.09375 -0.32383,-0.77231 -0.70756,-1.49149 -1.13867,-2.16992 z m -18.71289,0.18164 c -0.78303,0.0108 -1.61245,0.0537 -2.49023,0.12891 l 0,12.02344 c 0.27929,0 0.7779,0.0312 1.49609,0.0957 0.0245,0.002 0.0534,0.004 0.0781,0.006 l 0,-8.75 c 1.75558,-0.15041 3.32074,-0.17189 4.69727,-0.0645 1.37653,0.0859 2.55371,0.35346 3.53125,0.80468 0.70437,0.30346 1.29378,0.70876 1.7793,1.20508 -0.16498,-1.08255 -0.49829,-1.9927 -1.01953,-2.70898 -0.5586,-0.81651 -1.3365,-1.4394 -2.33399,-1.86914 -0.97753,-0.45123 -2.15472,-0.7207 -3.53125,-0.80664 -0.68826,-0.0537 -1.424,-0.0752 -2.20703,-0.0645 z m -42.61914,0.12891 -10.98047,0.56836 0.10547,3.45117 10.93164,-0.56641 -0.0566,-3.45312 z m 40.36719,18.46875 0.33007,16.79297 -9.61523,0.55859 0.0879,3.45899 11.10156,-0.64454 -0.33007,-16.79296 13.73632,16.79296 5.83594,-5.64062 -2.38281,-2.5918 -5.02735,4.85938 -13.73632,-16.79297 z m 94.98046,0.89258 0,2.81445 -12.86718,0 0.11914,5.02734 1.49414,-0.0527 -0.0391,-1.60156 12.86718,0 0,-6.1875 -1.57422,0 z m 8.24805,10.53906 -1.48047,0.0508 0.14649,5.375 -29.16797,0.55078 0.0391,3.40235 30.70313,-0.58008 -0.24024,-8.79883 z"
           id="flowRoot5897"
           inkscape:connector-curvature="0"
           transform="matrix(0.9974712,0,0,1.0058045,0.29067442,-1.9927143)" />
      </g>
    </g>
  </g>
</svg>
